<?xml version="1.0" standalone="no"?>
<!DOCTYPE svg PUBLIC "-//W3C//DTD SVG 20010904//EN"
 "http://www.w3.org/TR/2001/REC-SVG-20010904/DTD/svg10.dtd">
<svg version="1.0" xmlns="http://www.w3.org/2000/svg"
 width="400.000000pt" height="400.000000pt" viewBox="0 0 400.000000 400.000000"
 preserveAspectRatio="xMidYMid meet">

<g transform="translate(0.000000,400.000000) scale(0.100000,-0.100000)"
fill="#000000" stroke="none">
<path d="M2887 3489 c-10 -6 -27 -24 -37 -41 l-18 -30 -124 -3 c-144 -2 -204
-17 -333 -80 -107 -52 -172 -107 -260 -219 -35 -46 -71 -88 -79 -95 -11 -9
-26 4 -84 76 -119 148 -226 240 -346 297 -117 56 -191 70 -356 70 -132 0 -152
-3 -225 -28 -129 -44 -201 -90 -300 -190 -78 -78 -98 -106 -143 -196 -77 -154
-95 -232 -96 -415 -1 -160 13 -250 60 -387 61 -179 182 -398 329 -592 215
-287 676 -733 949 -920 76 -53 93 -60 144 -64 69 -5 117 14 236 91 323 211
726 653 1018 1117 145 231 223 441 248 670 20 177 -9 333 -90 496 -62 123
-136 209 -240 277 -66 43 -76 54 -88 93 -9 32 -22 50 -45 64 -35 22 -91 26
-120 9z m111 -25 c12 -8 22 -20 22 -26 0 -7 -5 -6 -15 2 -12 10 -20 6 -46 -19
-17 -17 -26 -31 -20 -31 7 0 7 -8 1 -26 -6 -14 -7 -30 -4 -36 4 -7 2 -8 -4 -4
-15 9 -32 -57 -32 -129 0 -73 -28 -179 -117 -440 l-68 -200 -33 -3 c-26 -3
-39 3 -60 26 l-28 30 -28 -100 c-27 -97 -27 -100 -9 -120 18 -21 18 -21 -5 -9
-13 7 -26 19 -29 26 -2 8 31 124 75 257 44 134 106 323 137 421 58 186 123
347 152 379 20 22 80 24 111 2z m-1659 -74 c120 -24 138 -31 212 -76 59 -35
77 -60 59 -78 -7 -7 -25 -3 -57 13 -201 98 -449 115 -599 41 -130 -64 -278
-239 -329 -389 -33 -98 -49 -216 -43 -327 5 -84 3 -94 -12 -94 -23 0 -30 44
-30 186 0 227 88 430 251 577 102 93 212 142 354 157 39 4 75 8 81 9 7 0 57
-8 113 -19z m1401 -28 c0 -10 -67 -38 -194 -82 -49 -18 -107 -43 -130 -57 -56
-34 -149 -125 -202 -197 -31 -43 -54 -63 -81 -73 -21 -7 -41 -13 -45 -13 -19
0 -4 34 44 106 121 181 278 285 473 314 71 11 135 11 135 2z m-1390 -153 c71
-16 180 -74 238 -126 l54 -48 -171 -58 c-95 -32 -177 -55 -184 -51 -6 5 -62
45 -123 91 -135 101 -167 111 -207 63 -38 -45 -41 -66 -22 -166 10 -49 19
-105 20 -124 2 -19 7 -45 10 -56 6 -19 -5 -28 -87 -74 -51 -29 -96 -58 -100
-64 -10 -16 14 -38 87 -81 36 -21 65 -40 65 -44 0 -3 -12 -56 -27 -117 -27
-108 -29 -113 -68 -137 -21 -14 -42 -24 -46 -21 -12 7 -58 155 -74 237 -20
104 -19 273 1 356 27 112 87 222 158 288 66 62 159 117 222 132 54 12 200 13
254 0z m1364 -106 c-19 -60 -44 -139 -55 -177 -26 -81 -34 -74 -43 38 -5 68
-10 84 -33 108 -15 15 -32 28 -38 28 -7 0 -17 11 -23 24 -9 21 -7 25 16 36 35
16 160 49 189 49 21 1 21 0 -13 -106z m261 -90 c-39 -157 -82 -287 -122 -375
-34 -74 -38 -78 -77 -86 -23 -5 -42 -8 -44 -7 -1 2 11 38 29 81 17 44 60 165
95 269 35 105 64 184 64 178 0 -22 14 -14 45 28 16 22 31 35 33 30 2 -6 -8
-59 -23 -118z m-475 98 c0 -4 -8 -19 -19 -32 -10 -13 -28 -43 -40 -67 -12 -23
-25 -41 -29 -38 -11 6 -58 -31 -50 -40 4 -4 15 -1 25 7 9 8 1 -7 -18 -32 -25
-35 -36 -43 -42 -33 -4 8 -15 14 -22 14 -22 0 -18 37 5 60 11 11 18 20 15 20
-3 0 2 11 11 25 14 21 19 23 32 13 12 -10 16 -10 19 0 3 6 9 9 14 6 6 -3 17
-3 25 0 12 5 13 10 3 28 -11 21 -11 22 4 9 19 -15 22 -8 7 19 -8 15 -5 22 12
34 25 18 48 21 48 7z m550 -31 c0 -5 -4 -10 -10 -10 -5 0 -10 5 -10 10 0 6 5
10 10 10 6 0 10 -4 10 -10z m-2030 -25 c0 -9 -6 -12 -15 -9 -8 4 -15 10 -15
15 0 5 7 9 15 9 8 0 15 -7 15 -15z m1485 -48 l-26 -57 29 -54 30 -54 -34 1
c-44 1 -86 -38 -109 -101 -58 -163 -68 -184 -99 -203 -67 -41 -136 -6 -136 68
0 47 15 77 26 50 13 -35 33 -17 44 41 25 126 49 187 66 169 3 -3 -2 -41 -12
-85 -10 -48 -14 -91 -9 -108 6 -26 8 -27 15 -9 4 11 11 43 15 72 6 44 15 62
66 120 59 68 98 122 132 183 28 52 30 28 2 -33z m-105 49 c0 -2 -8 -10 -17
-17 -16 -13 -17 -12 -4 4 13 16 21 21 21 13z m-1387 -28 c14 -13 62 -65 107
-115 44 -51 86 -93 91 -93 6 0 25 15 42 33 25 25 62 42 160 76 77 26 132 40
137 35 6 -6 -23 -57 -72 -129 l-82 -120 -10 33 c-5 17 -12 32 -16 32 -3 0 -13
-33 -21 -72 -13 -67 -17 -74 -48 -90 -52 -26 -63 -41 -66 -97 -3 -32 -11 -61
-24 -77 l-19 -25 -16 55 c-9 31 -19 69 -23 86 l-6 31 -116 -7 c-64 -3 -118 -6
-121 -6 -57 0 -90 4 -86 10 2 4 42 27 89 52 80 42 85 43 101 27 12 -11 32 -17
59 -16 23 1 62 -2 85 -6 44 -7 44 -7 31 16 -6 13 -22 36 -35 51 -12 15 -25 41
-29 57 -9 41 -61 84 -94 78 -14 -2 -33 -7 -42 -11 -13 -6 -18 4 -28 50 -14 71
-14 111 -1 119 6 3 10 15 10 26 0 25 13 24 43 -3z m875 -33 c-3 -3 -9 2 -12
12 -6 14 -5 15 5 6 7 -7 10 -15 7 -18z m1207 -49 c13 -34 14 -48 6 -65 -7 -12
-16 -21 -21 -21 -5 0 -16 -7 -25 -16 -13 -13 -13 -19 -3 -33 9 -11 5 -10 -10
3 -12 11 -25 16 -29 13 -3 -4 12 -23 35 -43 l42 -36 -29 -34 c-17 -18 -35 -52
-41 -74 -7 -27 -42 -75 -111 -155 -89 -101 -129 -135 -129 -106 0 5 29 75 65
157 63 142 124 311 140 382 4 19 11 30 18 25 6 -4 8 0 4 10 -4 12 -1 15 17 11
18 -3 25 2 29 17 8 29 22 17 42 -35z m-1155 -276 c78 -260 102 -354 85 -340
-7 6 -35 17 -63 25 -57 17 -87 48 -102 106 -8 30 -6 54 11 120 31 119 27 179
-12 199 -23 13 -24 6 -9 -70 8 -41 7 -64 -6 -105 -17 -59 -32 -78 -54 -65 -11
7 -19 -6 -37 -58 -23 -67 -101 -230 -115 -238 -3 -2 15 44 42 103 66 149 76
182 106 350 27 157 32 178 38 172 2 -2 -6 -71 -20 -154 -13 -82 -23 -153 -24
-157 0 -5 10 -8 21 -8 18 0 19 2 9 15 -10 12 -10 15 1 15 10 0 10 3 3 8 -8 5
-8 29 2 87 19 108 22 217 7 222 -14 5 -21 -23 -53 -197 -27 -151 -46 -212
-111 -351 -56 -120 -149 -290 -149 -272 0 21 51 174 85 258 18 44 67 179 108
300 89 260 102 297 118 326 11 21 13 19 36 -37 13 -32 51 -147 83 -254z m182
158 c-18 -57 -42 -134 -52 -173 -14 -53 -19 -62 -19 -37 -1 32 62 269 81 305
5 10 12 15 17 13 4 -3 -8 -51 -27 -108z m1104 -76 c19 -126 -24 -358 -105
-568 -33 -85 -118 -231 -208 -356 -53 -74 -58 -78 -95 -78 l-38 0 0 53 c0 28
-3 63 -6 77 -4 19 -3 21 5 10 11 -17 21 -6 95 105 49 72 53 81 34 69 -7 -4 -8
-3 -4 5 4 6 11 9 16 6 4 -2 23 19 42 48 104 159 150 225 173 252 l27 30 -21
-32 c-20 -30 -20 -31 -2 -26 11 3 21 12 24 21 3 10 8 26 13 36 5 14 4 17 -4
12 -7 -4 -3 8 8 27 20 33 20 34 1 72 -14 30 -16 44 -9 61 31 68 -50 136 -104
87 -25 -22 -23 -1 3 28 11 13 17 17 13 9 -3 -8 19 10 50 41 32 31 64 56 71 56
9 0 17 -17 21 -45z m-2201 18 c-3 -5 -13 -10 -21 -10 -8 0 -12 5 -9 10 3 6 13
10 21 10 8 0 12 -4 9 -10z m338 -111 c-5 -5 -6 11 -3 34 4 41 5 41 8 8 2 -18
0 -37 -5 -42z m1135 44 c-10 -2 -28 -2 -40 0 -13 2 -5 4 17 4 22 1 32 -1 23
-4z m72 -39 c0 -3 -14 -45 -31 -92 -17 -48 -48 -145 -68 -217 l-38 -130 -49 3
c-43 3 -99 21 -67 22 9 0 8 10 -2 41 -24 67 -19 99 21 142 19 21 39 35 43 32
5 -2 8 3 7 13 0 9 5 16 12 14 8 -1 11 1 8 6 -6 9 26 99 46 132 15 23 118 54
118 34z m557 -11 c16 -6 15 -8 -7 -13 -16 -4 -26 -14 -28 -28 -2 -12 -8 -20
-13 -17 -14 9 -11 32 7 49 18 18 17 18 41 9z m10 -49 c-3 -3 -12 -4 -19 -1 -8
3 -5 6 6 6 11 1 17 -2 13 -5z m-87 -35 c0 -6 -31 -43 -68 -83 -108 -112 -174
-194 -226 -284 -27 -45 -51 -80 -54 -78 -7 8 87 177 126 226 34 43 212 230
219 230 2 0 3 -5 3 -11z m-425 -19 c10 -11 16 -20 13 -20 -3 0 -13 9 -23 20
-10 11 -16 20 -13 20 3 0 13 -9 23 -20z m-1580 -19 c-6 -5 -21 -12 -35 -15
-24 -7 -24 -6 -6 8 21 17 57 23 41 7z m765 -36 c-15 -39 -57 -119 -75 -140
-14 -18 -14 -16 1 20 17 43 30 83 39 127 4 20 9 25 24 21 16 -4 18 -9 11 -28z
m-504 8 c-28 -76 -82 -193 -89 -193 -10 0 -3 23 40 128 19 45 40 82 45 82 6 0
7 -8 4 -17z m1820 -38 c-7 -19 -47 -17 -54 3 -5 15 39 33 52 22 5 -5 6 -16 2
-25z m-100 -22 c-20 -27 -95 -128 -167 -225 -71 -98 -135 -181 -142 -185 -19
-11 172 254 280 390 61 76 84 92 29 20z m-1406 23 c0 -31 -28 -59 -90 -91 -80
-43 -165 -127 -200 -200 -20 -40 -22 -58 -18 -141 3 -69 1 -89 -7 -77 -5 10
-10 63 -10 118 0 94 2 104 37 177 51 108 128 178 228 209 29 8 60 11 60 5z
m548 -131 c0 -29 0 -29 -8 -5 -4 14 -8 36 -8 50 -1 23 0 23 8 5 5 -11 8 -33 8
-50z m-272 -37 c-37 -37 -45 -72 -26 -108 17 -32 -24 -31 -69 2 -23 16 -41 32
-41 34 0 18 43 84 55 84 8 0 24 19 36 41 l21 42 30 -30 29 -30 -35 -35z m-716
-17 c22 -51 40 -97 40 -104 0 -7 -37 -32 -81 -57 -98 -54 -114 -74 -106 -138
3 -26 8 -54 12 -63 4 -11 -5 -25 -29 -43 l-35 -27 -27 42 c-51 81 -124 226
-124 247 0 11 10 28 23 37 12 8 22 20 22 25 0 15 253 185 262 177 2 -2 21 -45
43 -96z m1320 -1 c-7 -44 -16 -83 -21 -86 -21 -13 -26 9 -13 53 8 27 19 65 25
87 17 63 22 32 9 -54z m105 70 l-20 -9 20 0 c18 -1 17 -3 -5 -14 -14 -7 -32
-28 -41 -46 -13 -27 -17 -30 -22 -17 -8 20 1 65 16 84 5 6 24 12 41 11 26 0
28 -2 11 -9z m-1892 -90 c-7 -8 -23 24 -22 45 0 15 3 13 13 -10 7 -16 11 -32
9 -35z m1276 36 c9 -11 6 -12 -14 -8 -51 9 -84 -51 -48 -90 21 -24 4 -23 -24
1 -31 26 -29 65 3 90 31 24 66 27 83 7z m-459 -61 c0 -6 -56 -35 -67 -35 -4 1
8 9 27 20 39 22 40 22 40 15z m1625 -52 c-9 -15 -13 -19 -10 -8 4 11 10 29 13
40 3 11 7 14 9 8 3 -7 -3 -24 -12 -40z m-767 12 c2 -1 -23 -6 -54 -10 -117
-14 -219 -61 -284 -130 -34 -36 -6 -31 33 6 106 102 285 136 412 80 78 -35
178 -142 187 -200 3 -23 1 -24 -74 -25 -90 -1 -108 -12 -91 -55 9 -24 8 -28
-5 -27 -16 3 -20 15 -29 77 -3 20 -18 53 -34 72 -38 46 -186 150 -204 143 -14
-5 -46 -98 -59 -167 l-6 -37 90 -22 c79 -19 90 -25 90 -44 -1 -54 -49 -289
-60 -296 -7 -4 -39 -13 -71 -19 -59 -12 -186 -60 -225 -86 -11 -7 -58 -34
-104 -59 l-82 -46 7 28 c22 91 18 137 -17 147 -18 6 -14 11 33 34 31 15 63 40
75 57 l21 32 24 -30 c48 -59 144 -52 193 14 15 22 17 32 9 51 -14 30 -175 200
-236 248 l-48 38 33 9 c23 6 43 4 66 -5 17 -7 32 -9 32 -5 0 5 -37 26 -82 48
-72 33 -92 38 -153 38 -66 0 -168 -25 -180 -44 -3 -4 18 0 45 11 63 24 160 25
226 2 l49 -17 -70 -8 c-96 -11 -126 -23 -179 -69 -45 -40 -75 -100 -90 -181
-5 -27 -11 -36 -21 -31 -18 6 -19 -4 -4 -45 13 -36 48 -62 86 -62 33 -1 107
-49 111 -73 8 -40 -71 -33 -139 13 -65 43 -121 121 -135 189 l-11 56 -4 -42
c-3 -24 0 -39 5 -36 5 4 6 1 2 -5 -15 -25 -25 -10 -29 46 -3 51 -3 48 -6 -23
-2 -66 -4 -76 -13 -55 -18 44 -4 160 26 220 37 74 76 113 150 147 54 25 72 28
156 27 76 0 108 -5 163 -26 48 -18 67 -22 67 -13 0 22 101 106 158 132 65 30
131 42 197 35 28 -2 51 -6 53 -7z m711 -136 c-59 -118 -136 -242 -171 -276
-19 -18 1 20 56 107 48 74 101 163 118 197 18 34 34 60 36 58 2 -1 -16 -41
-39 -86z m-1849 77 c0 -8 -172 -97 -182 -94 -5 2 30 25 79 51 83 44 103 52
103 43z m1028 -152 c-40 -24 -74 -41 -76 -39 -4 4 22 107 37 147 l10 26 51
-45 50 -46 -72 -43z m-293 106 c-10 -11 -21 -18 -23 -15 -3 3 3 12 14 20 27
20 30 18 9 -5z m-770 -16 c-11 -8 -29 -21 -40 -29 -20 -14 -20 -14 1 -14 14
-1 23 -9 27 -23 2 -13 12 -40 21 -60 24 -55 11 -47 -19 11 -34 68 -51 76 -92
45 -24 -18 -37 -23 -50 -16 -13 8 2 19 73 55 97 49 109 54 79 31z m1665 -54
c-11 -16 -26 -33 -32 -36 -7 -4 1 9 16 29 34 44 46 50 16 7z m-973 -97 c27
-21 71 -62 97 -90 l49 -53 -30 0 c-17 0 -42 -9 -57 -21 -21 -17 -26 -18 -26
-5 0 8 -15 26 -33 38 -19 13 -58 45 -88 72 l-54 48 28 24 c38 33 57 30 114
-13z m-127 -48 c42 -22 38 -38 -4 -18 -87 41 -154 -61 -95 -145 6 -10 0 -4
-15 11 -40 43 -33 108 18 149 26 22 58 23 96 3z m-750 -25 c0 -11 -7 -20 -16
-20 -9 0 -12 -5 -8 -12 5 -10 4 -10 -6 -1 -11 10 -10 16 5 33 23 25 25 25 25
0z m100 16 c0 -2 -7 -7 -16 -10 -8 -3 -12 -2 -9 4 6 10 25 14 25 6z m1590 -21
c9 -11 9 -30 0 -87 -20 -117 -21 -118 -85 -118 -49 0 -55 2 -59 23 -10 45 -17
177 -11 187 10 16 140 13 155 -5z m-205 -35 c18 -20 18 -20 -20 -4 -30 12 -44
13 -62 5 -33 -15 -42 -13 -19 4 29 22 79 19 101 -5z m462 -53 c-46 -77 -59
-83 -20 -9 21 40 39 68 41 62 2 -5 -8 -29 -21 -53z m-485 26 c22 -20 23 -51 1
-75 -21 -24 -48 -23 -73 2 -52 52 17 123 72 73z m-1039 -254 c52 -76 107 -116
195 -144 65 -21 68 -23 94 -76 14 -30 33 -76 42 -104 12 -36 26 -56 49 -71
l32 -21 60 39 c33 21 53 38 45 39 -8 0 -1 7 15 14 17 7 34 11 38 8 5 -3 27 3
48 13 28 12 36 20 27 26 -9 5 -7 7 7 6 11 -2 59 11 107 27 166 55 118 0 -91
-104 -34 -18 -61 -35 -58 -38 3 -3 62 24 132 60 93 49 122 61 114 46 -30 -57
-391 -279 -453 -279 -43 0 -212 148 -388 340 -89 97 -208 248 -208 264 0 12
60 87 89 112 l26 22 18 -59 c9 -32 37 -86 60 -120z m625 153 c2 -14 -2 -22
-12 -22 -19 0 -29 17 -22 36 8 22 30 12 34 -14z m481 -123 l1 -96 -49 -7 c-49
-6 -66 -4 -109 17 -31 15 -64 80 -57 112 3 14 7 36 10 50 3 15 10 23 16 19 6
-4 15 -1 19 6 6 9 13 9 28 1 31 -17 77 -13 103 8 22 18 25 18 31 3 4 -9 7 -60
7 -113z m-519 98 c0 -7 -9 -13 -19 -13 -15 0 -17 3 -9 13 6 7 14 13 19 13 5 0
9 -6 9 -13z m603 -44 c-19 -7 -16 -23 5 -24 9 0 2 -5 -15 -10 -49 -14 -40 -67
12 -70 17 -1 16 -2 -5 -9 -53 -17 -60 -13 -60 33 0 23 4 47 8 53 9 13 44 34
57 33 6 0 4 -3 -2 -6z m-1465 -50 c5 -18 -10 -16 -34 2 -18 15 -18 15 5 13 14
-2 26 -9 29 -15z m1276 -209 c28 -11 17 -24 -19 -24 -33 0 -43 8 -28 23 8 9
27 9 47 1z m-22 -75 c-4 -46 -22 -99 -33 -99 -5 0 -9 -4 -9 -10 0 -5 7 -10 15
-10 8 0 15 -4 15 -10 0 -14 -38 -12 -42 2 -7 20 36 168 47 165 5 -2 9 -19 7
-38z m-352 -33 c0 -2 -7 -7 -16 -10 -8 -3 -12 -2 -9 4 6 10 25 14 25 6z"/>
<path d="M2465 3100 c-3 -5 -2 -10 4 -10 5 0 13 5 16 10 3 6 2 10 -4 10 -5 0
-13 -4 -16 -10z"/>
<path d="M2350 2805 c-7 -9 -8 -15 -2 -15 5 0 12 7 16 15 3 8 4 15 2 15 -2 0
-9 -7 -16 -15z"/>
<path d="M986 2977 c3 -10 9 -15 12 -12 3 3 0 11 -7 18 -10 9 -11 8 -5 -6z"/>
<path d="M1470 2920 c-36 -22 -100 -51 -143 -65 -43 -15 -86 -36 -97 -47 -17
-18 -33 -58 -24 -58 26 0 344 189 344 205 0 10 -15 3 -80 -35z"/>
<path d="M3015 2920 c-3 -5 -1 -10 4 -10 6 0 11 5 11 10 0 6 -2 10 -4 10 -3 0
-8 -4 -11 -10z"/>
<path d="M1913 2620 c-11 -16 -10 -18 2 -14 8 4 15 12 15 20 0 19 -3 18 -17
-6z"/>
<path d="M2310 2349 c0 -11 4 -18 10 -14 5 3 7 12 3 20 -7 21 -13 19 -13 -6z"/>
<path d="M920 2230 c-25 -16 -40 -30 -35 -30 11 0 85 48 85 55 0 8 -3 6 -50
-25z"/>
<path d="M2433 1773 c-17 -6 -16 -38 1 -52 26 -22 63 10 50 44 -6 15 -27 18
-51 8z"/>
</g>
</svg>
